<svg width="512" height="512" viewBox="0 0 512 512" fill="none" xmlns="http://www.w3.org/2000/svg">
<rect width="512" height="512" rx="32" fill="#CCFF00"/>
<path d="M248.89 65.4164C251.285 58.0459 261.712 58.0459 264.107 65.4164L305.338 192.314C306.409 195.61 309.481 197.842 312.947 197.842H446.375C454.125 197.842 457.347 207.759 451.077 212.314L343.132 290.741C340.328 292.779 339.155 296.39 340.225 299.686L381.457 426.584C383.852 433.954 375.416 440.083 369.146 435.528L261.201 357.101C258.397 355.063 254.6 355.063 251.796 357.101L143.85 435.528C137.581 440.083 129.145 433.954 131.54 426.584L172.771 299.686C173.842 296.39 172.669 292.779 169.865 290.741L61.9192 212.314C55.6494 207.759 58.8717 197.842 66.6215 197.842H200.05C203.516 197.842 206.587 195.61 207.658 192.314L248.89 65.4164Z" fill="white"/>
</svg>
